/* XPM */
static char *gelberPunkt_resized[] = {
/* columns rows colors chars-per-pixel */
"32 32 177 2 ",
"   c None",
".  c #FFD901",
"X  c #FFD902",
"o  c #FFDA03",
"O  c #FFDA04",
"+  c #FFDA05",
"@  c #FFDA06",
"#  c #FFDA07",
"$  c #FFDA08",
"%  c #FFDA09",
"&  c #FFDB0A",
"*  c #FFDB0B",
"=  c #FFDB0C",
"-  c #FFDB0D",
";  c #FFDB0E",
":  c #FFDB0F",
">  c #FFDB10",
",  c #FFDC10",
"<  c #FFDC11",
"1  c #FFDC12",
"2  c #FFDC13",
"3  c #FFDC14",
"4  c #FFDC15",
"5  c #FFDC16",
"6  c #FFDC17",
"7  c #FFDD17",
"8  c #FFDD18",
"9  c #FFDD19",
"0  c #FFDD1A",
"q  c #FFDD1B",
"w  c #FFDD1C",
"e  c #FFDD1D",
"r  c #FFDE1E",
"t  c #FFDE1F",
"y  c #FFDE20",
"u  c #FFDE21",
"i  c #FFDE22",
"p  c #FFDE23",
"a  c #FFDE24",
"s  c #FFDF25",
"d  c #FFDF26",
"f  c #FFDF27",
"g  c #FFDF28",
"h  c #FFDF29",
"j  c #FFDF2A",
"k  c #FFE02B",
"l  c #FFE02C",
"z  c #FFE02D",
"x  c #FFE02E",
"c  c #FFE02F",
"v  c #FFE030",
"b  c #FFE031",
"n  c #FFE131",
"m  c #FFE032",
"M  c #FFE132",
"N  c #FFE133",
"B  c #FFE134",
"V  c #FFE135",
"C  c #FFE137",
"Z  c #FFE138",
"A  c #FFE238",
"S  c #FFE239",
"D  c #FFE23A",
"F  c #FFE23B",
"G  c #FFE23C",
"H  c #FFE23D",
"J  c #FFE23E",
"K  c #FFE23F",
"L  c #FFE33F",
"P  c #FFE340",
"I  c #FFE342",
"U  c #FFE343",
"Y  c #FFE344",
"T  c #FFE345",
"R  c #FFE346",
"E  c #FFE446",
"W  c #FFE447",
"Q  c #FFE448",
"!  c #FFE44A",
"~  c #FFE44B",
"^  c #FFE44C",
"/  c #FFE54D",
"(  c #FFE54E",
")  c #FFE54F",
"_  c #FFE550",
"`  c #FFE551",
"'  c #FFE553",
"]  c #FFE653",
"[  c #FFE654",
"{  c #FFE656",
"}  c #FFE657",
"|  c #FFE658",
" . c #FFE659",
".. c #FFE75B",
"X. c #FFE75C",
"o. c #FFE75D",
"O. c #FFE75E",
"+. c #FFE75F",
"@. c #FFE760",
"#. c #FFE761",
"$. c #FFE861",
"%. c #FFE862",
"&. c #FFE863",
"*. c #FFE864",
"=. c #FFE865",
"-. c #FFE967",
";. c #FFE968",
":. c #FFE969",
">. c #FFE96A",
",. c #FFE96B",
"<. c #FFE96C",
"1. c #FFE96D",
"2. c #FFE96E",
"3. c #FFEA71",
"4. c #FFEA72",
"5. c #FFEA73",
"6. c #FFEA74",
"7. c #FFEB75",
"8. c #FFEB76",
"9. c #FFEB77",
"0. c #FFEB78",
"q. c #FFEB79",
"w. c #FFEB7A",
"e. c #FFEB7B",
"r. c #FFEC7D",
"t. c #FFEC7E",
"y. c #FFEC7F",
"u. c #FFEC80",
"i. c #FFEC81",
"p. c #FFEC82",
"a. c #FFED83",
"s. c #FFED88",
"d. c #FFED89",
"f. c #FFEE89",
"g. c #FFEE8A",
"h. c #FFEE90",
"j. c #FFEF90",
"k. c #FFEF91",
"l. c #FFEF92",
"z. c #FFEF94",
"x. c #FFEF95",
"c. c #FFEF96",
"v. c #FFF19D",
"b. c #FFF19E",
"n. c #FFF19F",
"m. c #FFF1A2",
"M. c #FFF1A3",
"N. c #FFF2A4",
"B. c #FFF2A7",
"V. c #FFF2A8",
"C. c #FFF2A9",
"Z. c #FFF3AC",
"A. c #FFF3AD",
"S. c #FFF3AE",
"D. c #FFF4B1",
"F. c #FFF4B2",
"G. c #FFF4B3",
"H. c #FFF5BD",
"J. c #FFF5BE",
"K. c #FFF5BF",
"L. c #FFF6C3",
"P. c #FFF6C4",
"I. c #FFF6C5",
"U. c #FFF8D0",
"Y. c #FFF8D1",
"T. c #FFF8D2",
"R. c #FFF9D7",
"E. c #FFF9D8",
"W. c #FFF9D9",
"Q. c #FFFADF",
"!. c #FFFAE0",
"~. c #FFFBE0",
"^. c #FFFBE1",
"/. c #FFFCE9",
"(. c #FFFCEA",
"). c #FFFEF5",
"_. c #FFFEF6",
/* pixels */
"                                                                ",
"                        ,.;.=.$.o.} ` ^                         ",
"                  7.7.6.5.3.1.:.*.O.} ` ! U H                   ",
"              0.w.r.y.u.r.w.8.3.,.=.O.} ) Q P S N               ",
"            w.y.s.j.z.x.j.d.u.q.4.,.*.X.[ ^ Y G B x             ",
"          q.i.h.v.B.A.A.V.b.k.a.q.3.:.$. ._ Q L C c h           ",
"        9.y.h.m.D.H.L.L.J.G.M.k.u.8.2.=.X.] ~ I D m j a         ",
"      5.q.s.v.D.L.U.E.E.Y.P.G.n.f.e.3.;.+.{ / Y G N k a r       ",
"      5.r.h.B.H.U.Q././.~.Y.K.C.l.t.6.>.$.| ( R H B l s r       ",
"    <.6.y.z.Z.L.R./.)._.(.W.I.S.c.u.7.,.%. .) E J V z s r 8     ",
"    ,.6.y.z.Z.L.R./.)._.(.W.I.S.c.u.7.,.%. .) E J V z s r 7     ",
"    :.5.r.h.B.H.U.!./.(.^.T.K.C.l.t.6.>.$.| ( R H V l s r 6 1   ",
"  @.-.3.w.s.v.F.L.Y.E.W.T.I.G.n.g.e.3.;.+.{ / Y G N k a e 5 <   ",
"  X.*.1.8.y.j.M.F.J.P.P.K.G.N.l.u.8.2.=.X.] ~ I D M j p w 4 :   ",
"  | @.:.3.0.p.j.b.V.A.S.C.n.l.a.q.3.:.$. ._ Q L C v g u 0 3 ;   ",
"  [ ..&.,.4.0.u.d.k.x.x.k.f.u.q.4.,.*.X.[ ^ Y G V z d t 8 1 -   ",
"  ) { O.=.,.3.8.w.t.u.u.t.e.8.3.,.=.O.} ) Q P S b j p w 5 > *   ",
"  ! _ } O.&.:.1.3.5.7.7.6.3.2.:.*.O.| ` ! U G V x f y 0 3 ; %   ",
"  Y ! _ { X.#.=.;.>.,.,.>.;.=.$.X.} ` ~ Y J C v j p e 7 < = $   ",
"  K Y ! ) [ | X.+.$.%.%.$.+.X. .[ ) ! Y J Z m k s t 9 3 ; & @   ",
"    H I W ^ _ ' { } |  .} { ] _ ^ Q U J Z M l f u q 5 < = # O   ",
"    C F P Y W ~ / ( ) ) ( / ~ Q Y P G C m l f i w 7 1 - % +     ",
"    b B A G L I Y T E E T Y I L G S B v k f i e 8 2 ; & @ o     ",
"      x b B C D F H H J H G D C B b x h s u w 8 2 : * # o       ",
"      g j l c n N B V V B N m c z j f p t q 7 2 : * # O X       ",
"        a s g j k l z z l k j g d p y e 9 5 1 ; * # O X         ",
"          t y i a s s s s a p u t w 0 6 3 , - & # O .           ",
"            q q w e r r r e q 0 8 5 3 < ; = % @ o .             ",
"              6 5 6 7 7 6 5 4 3 1 , ; = & # + X .               ",
"                  1 < < , > : ; = * % # + o X                   ",
"                      - = * & % $ @ + o X                       ",
"                                                                "
};
