/* XPM */
static char *enemy_removebg_preview_resized[] = {
/* columns rows colors chars-per-pixel */
"32 32 161 2 ",
"   c None",
".  c black",
"X  c #070606",
"o  c #080B0A",
"O  c #56060F",
"+  c #5E0913",
"@  c #5F0B15",
"#  c #5D0C17",
"$  c #660913",
"%  c #610B14",
"&  c #650914",
"*  c #690B13",
"=  c #690A14",
"-  c #690B15",
";  c #6D0B15",
":  c #6E0B15",
">  c #6D0B16",
",  c #790411",
"<  c #730B16",
"1  c #750A15",
"2  c #740B17",
"3  c #770A16",
"4  c #7F0A18",
"5  c #5A5A5A",
"6  c #6C6C6C",
"7  c #756969",
"8  c #800614",
"9  c #810916",
"0  c #820917",
"q  c #880917",
"w  c #800918",
"e  c #8C0A18",
"r  c #9D0517",
"t  c #9C0717",
"y  c #910819",
"u  c #920818",
"i  c #950A1B",
"p  c #970A1A",
"a  c #990919",
"s  c #9B0819",
"d  c #9B081A",
"f  c #9F091A",
"g  c #A30516",
"h  c #A60517",
"j  c #AC0618",
"k  c #A2091A",
"l  c #A50919",
"z  c #A5081B",
"x  c #A6091B",
"c  c #A7091B",
"v  c #A90819",
"b  c #A8081A",
"n  c #A8091A",
"m  c #A8091B",
"M  c #AA091A",
"N  c #AC081A",
"B  c #AD081A",
"V  c #AC091A",
"C  c #AC091B",
"Z  c #A9081C",
"A  c #BD071C",
"S  c #BD071D",
"D  c #BF071C",
"F  c #B7081C",
"G  c #B9081C",
"H  c #BA081C",
"J  c #BB081D",
"K  c #BB0B1E",
"L  c #BC081D",
"P  c #BE081C",
"I  c #BE081D",
"U  c #BA0C1F",
"Y  c #911C29",
"T  c #A60E20",
"R  c #B00D21",
"E  c #B20F23",
"W  c #BA0D20",
"Q  c #BC0D21",
"!  c #AF1326",
"~  c #A01D2C",
"^  c #B21023",
"/  c #B01225",
"(  c #B5182B",
")  c #A72534",
"_  c #A82333",
"`  c #A62B38",
"'  c #A62C39",
"]  c #B32233",
"[  c #C7051A",
"{  c #C4061B",
"}  c #C6061B",
"|  c #C7061B",
" . c #C1071C",
".. c #C0071D",
"X. c #C3061C",
"o. c #C5071C",
"O. c #C5071D",
"+. c #C8061B",
"@. c #CC051B",
"#. c #C8071D",
"$. c #C9071D",
"%. c #CA071D",
"&. c #CB071D",
"*. c #CD051C",
"=. c #CC061C",
"-. c #CD071C",
";. c #CC061D",
":. c #CD061D",
">. c #CC071D",
",. c #CD071D",
"<. c #CF061C",
"1. c #CE061D",
"2. c #CF061D",
"3. c #CE071D",
"4. c #CF051E",
"5. c #CC061E",
"6. c #CE061E",
"7. c #C2081D",
"8. c #C5081E",
"9. c #A93E4B",
"0. c #AD3D4A",
"q. c #B03342",
"w. c #B1424F",
"e. c #B4414E",
"r. c #B54652",
"t. c #AE5962",
"y. c #AB5B64",
"u. c #AD5B65",
"i. c #B05963",
"p. c #B96C74",
"a. c #BB737A",
"s. c #937E81",
"d. c #B67C83",
"f. c #B57F85",
"g. c #828180",
"h. c #8B8B8B",
"j. c #9A9A9A",
"k. c #A39E9E",
"l. c #C9B3B6",
"z. c #CAB5B7",
"x. c #D1C1C2",
"c. c #D1C3C4",
"v. c #D3C2C4",
"b. c #D0D2D1",
"n. c #DDD5D5",
"m. c #DFD8D9",
"M. c #DED9D9",
"N. c #E5E2E3",
"B. c #E5E4E3",
"V. c #E6E4E4",
"C. c #E5E6E6",
"Z. c #E7EAEA",
"A. c #EEEFEF",
"S. c #F1F2F2",
"D. c #F3F4F4",
"F. c #F4F5F5",
"G. c #FBFBFB",
"H. c #FBFFFE",
"J. c #FDFDFD",
"K. c #FDFFFF",
"L. c white",
/* pixels */
"                                                                ",
"                                                                ",
"                            ; 9 0 :                             ",
"                        - x O.&.&.O.Z >                         ",
"                      2 J 3.>.&.5.>.<.P 1                       ",
"                    % F 1.5.5.;.;.5.;.3.G &                     ",
"                    a 1.@.@.:.;.;.:.@.@.2.f                     ",
"                    S K ` ) ..:.:. ._ ' U D *                   ",
"                  q Q d.B.M.u.{ o.i.m.V.f.W e                   ",
"                  t Y g.C.L.n.] T 7 b.L.A.w.r                   ",
"                  l O . h.L.D.r., . 5 G.K.a.g                   ",
"                  m + o j.L.S.e.8 X 6 J.H.p.h                   ",
"                  v ~ k.F.L.v.( R s.Z.L.N.q.j                   ",
"                  b 8.t.x.z.9.[ +.0.l.c.y.7.B                   ",
"                  n 4.X./ ^ } :.>.| E ! X.2.C                   ",
"                  n 1.;.*.*.;.=.=.;.:.*.:.3.V                   ",
"                  m 1.;.;.;.;.;.;.;.;.;.;.1.V                   ",
"                  m 1.;.;.;.;.;.;.;.;.;.;.1.V                   ",
"                  n 1.;.;.;.;.;.;.;.;.;.;.1.V                   ",
"                  n 1.;.;.;.;.;.;.;.;.;.;.1.N                   ",
"                  n 1.;.;.;.;.;.;.;.;.;.;.1.N                   ",
"                  n 1.;.;.;.;.;.;.;.;.;.;.1.N                   ",
"                  n 1.;.;.;.;.;.;.;.;.;.;.1.N                   ",
"                  n 1.;.;.;.;.;.;.;.;.;.;.1.N                   ",
"                  b 1.;.;.;.;.;.;.;.;.;.;.1.N                   ",
"                  b 1.;.;.;.;.;.;.=.;.5.;.1.N                   ",
"                  b 6.$.:.5.:.#.$.>.>.%.O.-.N                   ",
"                  c k 1 z ,.A w 4 L ;.d = s M                   ",
"                  i     $ I y     u H       p                   ",
"                  #       3         <       @                   ",
"                                                                ",
"                                                                "
};
