/* XPM */
static char *dooor_1__resized[] = {
/* columns rows colors chars-per-pixel */
"32 32 189 2 ",
"   c None",
".  c #16181C",
"X  c #18191C",
"o  c #121615",
"O  c #391D0F",
"+  c #371E11",
"@  c #3D210F",
"#  c #362013",
"$  c #382011",
"%  c #1E2425",
"&  c #1B3B3B",
"*  c #222526",
"=  c #212528",
"-  c #252A2D",
";  c #2A2C2C",
":  c #3B2B24",
">  c #372C27",
",  c #2A2E31",
"<  c #242E32",
"1  c #2E3D3E",
"2  c #263337",
"3  c #383D3C",
"4  c #532E19",
"5  c #5A2C15",
"6  c #4B2511",
"7  c #60331C",
"8  c #402D20",
"9  c #1B403E",
"0  c #524639",
"q  c #694834",
"w  c #2E3F42",
"e  c #1B4140",
"r  c #2E4346",
"t  c #2F494B",
"y  c #2B4447",
"u  c #384D51",
"i  c #365959",
"p  c #35474B",
"a  c #37696A",
"s  c #3C6E70",
"d  c #3C7979",
"f  c #2B6A6A",
"g  c #43575C",
"h  c #725F48",
"j  c #695A50",
"k  c #696459",
"l  c #435F62",
"z  c #467979",
"x  c #56767C",
"c  c #446B6D",
"v  c #787971",
"b  c #776D68",
"n  c #83350F",
"m  c #853813",
"M  c #8B3E19",
"N  c #8B3C13",
"B  c #933E14",
"V  c #8B431F",
"C  c #964117",
"Z  c #93431B",
"A  c #9A451D",
"S  c #92481D",
"D  c #9D491F",
"F  c #A2491F",
"G  c #8D4B2D",
"H  c #8F4622",
"J  c #9C4C24",
"K  c #954D2B",
"L  c #994721",
"P  c #9C512D",
"I  c #995738",
"U  c #A34B22",
"Y  c #A84F26",
"T  c #A74B24",
"R  c #A45126",
"E  c #AD5325",
"W  c #AC552B",
"Q  c #AB572D",
"!  c #B15425",
"~  c #B4592C",
"^  c #BC5D2E",
"/  c #B0572D",
"(  c #A15733",
")  c #A95C3A",
"_  c #B15A32",
"`  c #BA5E30",
"'  c #B55F39",
"]  c #BB6234",
"[  c #BA633A",
"{  c #B76439",
"}  c #C36534",
"|  c #CA6936",
" . c #C3683B",
".. c #CD6C3C",
"X. c #C46638",
"o. c #D16B3A",
"O. c #D76C38",
"+. c #C37039",
"@. c #D4703F",
"#. c #DB723E",
"$. c #E5763D",
"%. c #805C40",
"&. c #945940",
"*. c #986144",
"=. c #AB6242",
"-. c #AE6D4D",
";. c #BA6B47",
":. c #BE794A",
">. c #B87248",
",. c #BC7352",
"<. c #C26C43",
"1. c #CC6E41",
"2. c #C26740",
"3. c #C4714C",
"4. c #CF7C48",
"5. c #D47241",
"6. c #DA7342",
"7. c #D67D45",
"8. c #C27450",
"9. c #E77843",
"0. c #F27F43",
"q. c #738270",
"w. c #AC8A5F",
"e. c #B88D60",
"r. c #A58860",
"t. c #CE8953",
"y. c #DB955C",
"u. c #D6965F",
"i. c #FD8446",
"p. c #FE8548",
"a. c #FD8F4F",
"s. c #E2995E",
"d. c #EB9B5B",
"f. c #FC9B57",
"g. c #FC9B58",
"h. c #F89655",
"j. c #E6874D",
"k. c #D89760",
"l. c #F6A461",
"z. c #F8A462",
"x. c #3E7F80",
"c. c #5B7E82",
"v. c #547C82",
"b. c #398383",
"n. c #3F9E9F",
"m. c #3EA09E",
"M. c #3F9EA0",
"N. c #3DA0A1",
"B. c #4A8E8F",
"V. c #558A8F",
"C. c #598487",
"Z. c #428E90",
"A. c #548B92",
"S. c #409C9D",
"D. c #459798",
"F. c #5D9194",
"G. c #53959B",
"H. c #539397",
"J. c #6C8480",
"K. c #69979F",
"L. c #6C989E",
"P. c #669697",
"I. c #6A8F96",
"U. c #6A9EA4",
"Y. c #6A9FA9",
"T. c #4BA5A6",
"R. c #58A6AA",
"E. c #57BCBF",
"W. c #59BBBC",
"Q. c #57B4B7",
"!. c #69A2A6",
"~. c #66A7AD",
"^. c #68A4AB",
"/. c #62AAAF",
"(. c #68ADAE",
"). c #64ADB3",
"_. c #68ADB4",
"`. c #64B1B6",
"'. c #64B4BA",
"]. c #63B9BE",
"[. c #5BBDC0",
"{. c #57BFC1",
"}. c #62BDC2",
"|. c #56C3C4",
" X c #5CC1C3",
".X c #5ECACD",
"XX c #5AC4C8",
"oX c #60C1C5",
"OX c #60C4CB",
/* pixels */
"                      f x.S.Z.Z.z q ] :.S _ G                   ",
"                d T.T././. X/.v >.j.f.t.D 6.L ) *.              ",
"          z T.R.~.'.R.v.g y 3 J a.d.] ..A 9.U o.P k             ",
"        B.R.).`.z u 1 2 = ; 7 #.a.y.~ #.F 6.F 5.J q F.V.        ",
"    i S.oX^.c.p < ; ; , , 8 R i.l.:.E 6.F @.A 6.T U q.E.s       ",
"    B.).!.c = ; , , , , ; 4 | i.z.{ ! 7.F @.A #.E ^ h Y.R.c     ",
"  v.[.`.v.- , , , , , 2 : J i.h.s.{ E 5.F 6.U #.Y | ( q.}.T.i   ",
"& T.^.P.< - , , , , , , : E i.f.u.{ ! 1.F 6.U #.Y O./ 0 P.}.f   ",
"b.{.`.l * , , , , , , , : E $.| [ R F ` A 1.A 5.Y o.Q + A.}.T.y ",
"M.XX).r * , , , , , , , : E ! ..<.8.[  .W ^ C ` Z } R + A.).|.9 ",
"S.}.Y.w * , , , , , , , : ! $.^ Z K J =.;.;.3.<.{ ` T 5 C.~.E.9 ",
"M.OX_.y * , , , , , , , : ! p.h.t.J B J n Z H K =.{ ,.G P.].|.e ",
"n.'.U.1 * , , , , , , , : E p.f.s.{ ! 1.A | N E m B V 4 J.Y.W.9 ",
"M..X'.t * , , , , , , , : ! p.f.k.&.R 1.U 6.J 5.U | J $ D.}.XXe ",
"S.`.U.w = , , , , , , , : E p.f.r.v *.3.A 6.L 5.J o._ O v.U.E.e ",
"M..X'.t * , , , , , , , : E p.f.e.j I 5.F 9.U 6.Y o._ # G.}.XXe ",
"m.`.L.w * , , , , , , , : ! p.f.k.q L 6.U 5.A 6.Y O./ O c.!.W.& ",
"m.OX`.t * , , , , , , < > ! p.f.k.q U 6.F 5.F @.T ../ $ H.].|.9 ",
"S.].!.w * , , , , , , , : ! p.f.e.k I 5.U 9.U @.U o._ + C.^.W.e ",
"S.oX(.t * , , , , , , < : ! p.f.w.b &.1.U 6.F @.Y o.~ + A.`.|.9 ",
"S.oX~.r * , , , , , , , : ! p.f.k.) E o.U 5.D 5.Y | R O V._.|.& ",
"m.].!.r * , , , , , , , : E p.f.s.' Y 6.U ..Z } F ~ _ H k !.[.e ",
"N.XX_.p * 2 , , , , , , : E p.h.y.W F ] U ] ] <.3.<.,.( h (.XX9 ",
"S.`.L.r * , , , , , , , : ! O.} [ [ X.3.<.,.) ( K M m 6 c.!.W.9 ",
"m..X'.t = , , , , , , , : Y ! | [ -.P K M Z n F N ^ Y + G.}.XX& ",
"S.).I.1 * , ; , , , , , : ! 0.} L m B Y C o.A 6.E o./ O x K.Q.e ",
"d s g % o X X X X X . . + ! p.g.y._ ! 6.U 5.D @.Y X.Q O w u a   ",
"                          ~ p.g.y.[ ! 5.U 5.L  .P K             ",
"                          ~ p.g.y.' ! 1.L [ K                   ",
"                          ~ p.g.k.) U [                         ",
"                          ~ O.7.:.I                             ",
"                                                                "
};
