/* XPM */
static char *dooor_resized[] = {
/* columns rows colors chars-per-pixel */
"32 32 177 2 ",
"   c None",
".  c #1D0E08",
"X  c #3D1D0C",
"o  c #3B1F10",
"O  c #3D200F",
"+  c #3C2111",
"@  c #3B2A1E",
"#  c #253237",
"$  c #3C3A34",
"%  c #3A2B22",
"&  c #421F0C",
"*  c #43200D",
"=  c #4B240E",
"-  c #5D290D",
";  c #442B1A",
":  c #502915",
">  c #5F2911",
",  c #6B2D0C",
"<  c #6D310F",
"1  c #632B11",
"2  c #6E3214",
"3  c #673216",
"4  c #783615",
"5  c #49392F",
"6  c #7F573C",
"7  c #1B4543",
"8  c #1E4D4B",
"9  c #1C4847",
"0  c #1F504E",
"q  c #264545",
"w  c #2C5657",
"e  c #315758",
"r  c #304548",
"t  c #3E605E",
"y  c #3E5F60",
"u  c #3F6061",
"i  c #336F71",
"p  c #3A7877",
"a  c #29696B",
"s  c #465051",
"d  c #425951",
"f  c #7B5D4F",
"g  c #745F55",
"h  c #40605F",
"j  c #786657",
"k  c #405F61",
"l  c #426062",
"z  c #476B68",
"x  c #516972",
"c  c #54747A",
"v  c #58787D",
"b  c #6B716B",
"n  c #69706C",
"m  c #83360F",
"M  c #843710",
"N  c #853912",
"B  c #893A13",
"V  c #823E1E",
"C  c #903E18",
"Z  c #843F21",
"A  c #8C421F",
"S  c #94441D",
"D  c #9A451C",
"F  c #9E491E",
"G  c #A1491F",
"H  c #A0471F",
"J  c #8D4220",
"K  c #934620",
"L  c #984721",
"P  c #964923",
"I  c #9B4A25",
"U  c #9A4D29",
"Y  c #944B2B",
"T  c #9B512D",
"R  c #83523D",
"E  c #9D5331",
"W  c #A24B21",
"Q  c #A94D22",
"!  c #AF5327",
"~  c #A2522C",
"^  c #AB542D",
"/  c #B55A2E",
"(  c #B95B2E",
")  c #B5552A",
"_  c #A75634",
"`  c #AB5630",
"'  c #AE5A33",
"]  c #AF5E3A",
"[  c #A75934",
"{  c #B45C34",
"}  c #B55D39",
"|  c #AE603D",
" . c #BC6333",
".. c #B5623E",
"X. c #BA633E",
"o. c #C46536",
"O. c #C96735",
"+. c #C86832",
"@. c #C2653A",
"#. c #C5683E",
"$. c #CB6C3E",
"%. c #D86E3F",
"&. c #D3703D",
"*. c #845E42",
"=. c #835240",
"-. c #9C5F42",
";. c #9B6044",
":. c #886755",
">. c #916753",
",. c #AA6140",
"<. c #B66441",
"1. c #BA6643",
"2. c #BD6945",
"3. c #BE6C48",
"4. c #BE724E",
"5. c #BE7654",
"6. c #C16742",
"7. c #C36A44",
"8. c #CB6D44",
"9. c #C36B48",
"0. c #CB6D48",
"q. c #D06F45",
"w. c #D26E48",
"e. c #C5744D",
"r. c #CC7249",
"t. c #D67343",
"y. c #D97443",
"u. c #C57751",
"i. c #E17644",
"p. c #E07843",
"a. c #38817F",
"s. c #567D82",
"d. c #5A7B80",
"f. c #398485",
"g. c #3F9292",
"h. c #448686",
"j. c #558186",
"k. c #5C838A",
"l. c #55858A",
"z. c #42908F",
"x. c #518E92",
"c. c #44989A",
"v. c #499497",
"b. c #509093",
"n. c #509398",
"m. c #61848B",
"M. c #638E95",
"N. c #619197",
"B. c #67979D",
"V. c #659DA2",
"C. c #6B9AA2",
"Z. c #4EA3A6",
"A. c #5AABAD",
"S. c #55A6A9",
"D. c #5EAEB3",
"F. c #4EB9BA",
"G. c #58B2B2",
"H. c #55BABD",
"J. c #59BABD",
"K. c #64A0A6",
"L. c #65A4AC",
"P. c #6AA3AB",
"I. c #6AA1A2",
"U. c #66AEB4",
"Y. c #68ACB2",
"T. c #63B3B4",
"R. c #62B8BD",
"E. c #65B5B9",
"W. c #55BEC1",
"Q. c #5BBFC1",
"!. c #63BDC3",
"~. c #55C5C6",
"^. c #5BC0C2",
"/. c #55C7C9",
"(. c #5AC7CA",
"). c #62C1C5",
"_. c #62C5CA",
/* pixels */
"                                                                ",
"                          H.W.H.F.F.F.                          ",
"                  f.z.A.D.(.).L.L.^.(.U.A.c.f.                  ",
"            p z.S.J._.K.m.k.z s s z l.k.V._.E.S.z.f.            ",
"          h.G._.P.m.z d ; : , , , , : ; d z m.K._.G.h.          ",
"        Z.Y.B.N.z ; 1 4 I C $.....] C ! M - ; z N.C.L.Z.        ",
"      h.).E.d.5 , Q ' X.8.Q y.3.2.<.I y.7.{ I , 5 d.T.^.h.      ",
"    p A.C.k.% 4 D i.8.6.8.G w.6.9...G t.8.w.q.D B @ k.C.D.p     ",
"  w Z._.V.$ 1 _ W y.0.9.#.W t.8.0.<.F t.1.0.$.G O.< $ V.!.S.e   ",
"  a !.P.z * T X.W t.8.r.1.I t.8.8...F t.2.9.#.G t.~ = k P.!.i   ",
"  c.R.N.$ 2 <.X.G t.2.9.<.W y.8.8.1.G t.2.9.8.Q t.<.2 $ M.R.c.  ",
"8 (._.b.O  .9.X.Q t.2.2.1.G p.8.9.6.G t.2.7.8.G y.2.~ o x._./.9 ",
"7 J.B.b 3 ) ! ~ D / ^ ^ ^ S ( ^ ^ ^ D ( ^ ^ ^ S ( ^ U 1 n B.H.7 ",
"7 ~.Y.*.&.$.e.e.$.$.8.u.$.$.$.8.u.8.$.$.8.u.7.$.8.u.0.O.*.U./.7 ",
"7 H.I.j E P U T U U U T U U I U T I I I U T I I I T U Y j K.~.7 ",
"7 H.P.j.= D F A M W S S S N W L S D M I K L K M I L C * v P.H.7 ",
"7 ~.!.v.* o.9.<.W y.0.3.<.W i.0.2.6.Q t.2.2.<.W y.r.' + b.).~.w ",
"7 J.C.s.*  .>.f L y.8.9.1.W y.9.8.9.G y.2.9.<.W p.0.{ o c V.H.d ",
"7 ~.!.b.*  .:.g J t.6.0.1.W y.8.q.X.G y.2.9.<.W p.0.{ + x.!.~.h ",
"7 W.Y.j.O +.-.R W t.1.8.6.W w.9.q.#.G t.9.9.1.W i.q.{ X s.Y.W.u ",
"7 J.P.s.o +.;.R I t.2.7.6.Q t.2.q.6.G t.9.0.1.W y.0.' o v K.J.l ",
"9 /._.n.*  .:.f P y.2.2.7.Q y.6.q.6.G y.8.r.1.W y.0.{ o b.(./.l ",
"q J.C.c &  .:.j K t.2.2.6.Q t.2.0.X.I y.8.0.6.W %.0.' o c C.H.l ",
"0 ~.!.x.& O.3.| I r.2.2.6.Q t.1.1.<.G p.8.8.7.W %.2._ o x.!.~.h ",
"0 ~.Y.k.* ( 7.] F $.X.<...F 8.X.<.} D %.#.1.X.F $.X.E O j.T.W.h ",
"8 W.I.j I ( ( / ! ( / { ) ! / / ' ) ! ( { { ( ! /  .! U j I.H.h ",
"8 /.U.*.t.2.4.4.7.X.2.5.2.7.2.7.5.2.9.2.2.u.7.#.1.5.3.#.6 T./.h ",
"9 J.B.b 2 M N N m B M N N m B N N N M N N M N m N N 4 3 b B.J.t ",
"9 ~.!.b.X ( o.' D @.' ..[ S o.} X.' S o.} } } D @.} U o l.R./.w ",
"7 ^.U.l.* O.0.#.W t.9.0.X.G y.0.0.#.G t.9.0.6.W t.2._ o j.T.H.7 ",
"q G.M.x o  .7...L t.1...| D t.#.1.X.F $.<.X.| P $.<.E o x M.S.9 ",
"    r # . 4 A V - K A A A > L A A A > K Z J J > S J 2 . # r w   "
};
