/* XPM */
static char *_bc8fc750a9d4d57ea5ebe3b510d7976iX05u9FoOxtIJFCY[] = {
/* columns rows colors chars-per-pixel */
"32 32 12 1 ",
"  c None",
". c black",
"X c #9595B7",
"o c #B9C6ED",
"O c #D8E3FD",
"+ c #717192",
"@ c #36355C",
"# c #6BCEBC",
"$ c #A4F3E3",
"% c #DDFFF6",
"& c #269992",
"* c #535374",
/* pixels */
"        .............           ",
"       .XoXooOooOOooO.          ",
"      .++X+XXXXXooXXXX.         ",
"      .XXooooOooOOooOo.         ",
"      .++X+XXoXXooXXoX.         ",
"      .++X+XXoXXooXXoX.         ",
"      .++X+XXoXXooXXoX.         ",
"      .++X+XXoXXooXXoX.         ",
"      .++X+XXoXX@@XXoX.         ",
"      .++X+XXoX@#$@XoX.         ",
"      .++X+XXo@#$%$@oX.         ",
"      .++X+@@@@#$&$@@@.         ",
"      .++X@#$%%$%&%$%%.         ",
" ..   .++X@#$..&&%&&...     ..  ",
" .%. ..++X@#$%%$%&%$%%.  . .%.  ",
" .%%.%.++X+@@@@#%&%@@@. .%.%%.  ",
"  .%#$.++X+XXo@#%&%@oX. .$#%.   ",
"  .$$$#...+XXo@#%&%@oX..#$$$.   ",
" .%.#$$##&.XXo@#%&%@oX.#$$#.%.  ",
" .%$######&.Xo@#$&$@oX.####$%.  ",
"  .%$###&&&.+X@#$&$@X.&###$%.   ",
"   ..$$##&.....@@@@..#.#$$..    ",
"     .....###$$$#&#$$#....      ",
"     @@@*&#######&####.@@@      ",
"    .Ooo@*&######&###.@ooO.     ",
"    .OOo@.*&####&###. @oOO.     ",
"    .OOo@.@*&&&&&&&&. @oOO.     ",
"     ... .+@+.....+XX. ...      ",
"         .++++. .+XXX.          ",
"         .***.  .+++.           ",
"         .XooX. .oOOo.          ",
"         ...... ......          "
};
