/* XPM */
static char *_c63f83927e544c7c52e52ded09b2d0eOWQL6LbjBjm1xbMd[] = {
/* columns rows colors chars-per-pixel */
"64 64 243 2 ",
"   c #280E04",
".  c #341309",
"X  c #4F180A",
"o  c #4C200F",
"O  c #5A2616",
"+  c #70311B",
"@  c #462520",
"#  c #6C3721",
"$  c #773927",
"%  c #5E4C3C",
"&  c #7E422C",
"*  c #7A4934",
"=  c #6A5645",
"-  c #725642",
";  c #79604D",
":  c #82371D",
">  c #833724",
",  c #843A24",
"<  c #8C3D25",
"1  c #843D2A",
"2  c #8A3E2A",
"3  c #953E24",
"4  c #873F30",
"5  c #854226",
"6  c #85442D",
"7  c #8D432D",
"8  c #95442C",
"9  c #9A462B",
"0  c #9A452E",
"q  c #93492D",
"w  c #834634",
"e  c #854B34",
"r  c #8D4A34",
"t  c #8A4B39",
"y  c #934632",
"u  c #994633",
"i  c #934B34",
"p  c #9C4B34",
"a  c #944D3A",
"s  c #9C4E3A",
"d  c #8C553A",
"f  c #8D543D",
"g  c #9D5136",
"h  c #95563A",
"j  c #94533D",
"k  c #9C523C",
"l  c #A34A2E",
"z  c #A54B35",
"x  c #A34D34",
"c  c #A34F3A",
"v  c #A45136",
"b  c #AA5134",
"n  c #A05837",
"m  c #A4533C",
"M  c #AB553B",
"N  c #A55A3D",
"B  c #AC593D",
"V  c #B3593E",
"C  c #B25B3E",
"Z  c #B6613F",
"A  c #8B5643",
"S  c #8D5C45",
"D  c #935541",
"F  c #9C5542",
"G  c #945B44",
"H  c #9B5B45",
"J  c #965E4B",
"K  c #9C5D49",
"L  c #A04E40",
"P  c #A35641",
"I  c #AA5641",
"U  c #A35A44",
"Y  c #AC5C43",
"T  c #A05748",
"R  c #A45D4A",
"E  c #AB5E49",
"W  c #B25D42",
"Q  c #B35D46",
"!  c #8C644B",
"~  c #946045",
"^  c #9C6146",
"/  c #94624C",
"(  c #9D634B",
")  c #9C694C",
"_  c #876C53",
"`  c #966B54",
"'  c #9A6955",
"]  c #9D6C54",
"[  c #8C7159",
"{  c #977457",
"}  c #95745C",
"|  c #9C735B",
" . c #967A5E",
".. c #A46146",
"X. c #AC6245",
"o. c #A3644C",
"O. c #AB634C",
"+. c #A4694F",
"@. c #AA6A4E",
"#. c #B36245",
"$. c #BA6345",
"%. c #B06947",
"&. c #B3644B",
"*. c #BB654A",
"=. c #B56A4D",
"-. c #BB694C",
";. c #B4704F",
":. c #A36551",
">. c #AB6651",
",. c #A56B53",
"<. c #AB6C54",
"1. c #A56D59",
"2. c #AB6E59",
"3. c #B36651",
"4. c #B36C54",
"5. c #BA6C52",
"6. c #BB6A55",
"7. c #B46E59",
"8. c #A77054",
"9. c #AC7156",
"0. c #A4735C",
"q. c #AC735A",
"w. c #A4785E",
"e. c #AC795E",
"r. c #B37155",
"t. c #BC7255",
"y. c #BC7857",
"u. c #B3745B",
"i. c #BB745B",
"p. c #B37A5D",
"a. c #BC795D",
"s. c #957A61",
"d. c #9A7C63",
"f. c #A47C63",
"g. c #AC7C63",
"h. c #AB7964",
"j. c #B57863",
"k. c #B47C62",
"l. c #BC7A61",
"z. c #C16B4C",
"x. c #C16D52",
"c. c #C37253",
"v. c #C97457",
"b. c #C2765B",
"n. c #C57A5C",
"m. c #C37A62",
"M. c #9E8165",
"N. c #9E826B",
"B. c #9F886F",
"V. c #9F8871",
"C. c #A38265",
"Z. c #AB8165",
"A. c #A4856C",
"S. c #AC846C",
"D. c #A6886D",
"F. c #AB8A6E",
"G. c #B68164",
"H. c #BB8365",
"J. c #B4856B",
"K. c #BB846A",
"L. c #B68B6E",
"P. c #BA896C",
"I. c #A58A72",
"U. c #AB8C73",
"Y. c #A98B75",
"T. c #B78A73",
"R. c #B38D74",
"E. c #BB8B72",
"W. c #AD9176",
"Q. c #AC937B",
"!. c #A99579",
"~. c #B49275",
"^. c #BA9374",
"/. c #B3957C",
"(. c #BB947A",
"). c #B4997C",
"_. c #BC9B7D",
"`. c #C3805F",
"'. c #C2856B",
"]. c #C68668",
"[. c #D18B6C",
"{. c #C28D73",
"}. c #C39274",
"|. c #C89479",
" X c #C49B7D",
".X c #D1987C",
"XX c #AE9781",
"oX c #B59C83",
"OX c #B59984",
"+X c #BA9C83",
"@X c #B59E8B",
"#X c #BBA086",
"$X c #BCA38B",
"%X c #BBA78D",
"&X c #BDA690",
"*X c #BEAB92",
"=X c #C59B81",
"-X c #C59A85",
";X c #CC9C82",
":X c #D19D82",
">X c #CDA285",
",X c #C3A58C",
"<X c #C5A78C",
"1X c #CDA38B",
"2X c #D6A68B",
"3X c #C3AC93",
"4X c #C6AB97",
"5X c #CBAD94",
"6X c #C2AE9B",
"7X c #D1A690",
"8X c #D4AB92",
"9X c #DCAE93",
"0X c #CAB296",
"qX c #C5B19B",
"wX c #CCB39B",
"eX c #CAB69B",
"rX c #DAB296",
"tX c #D3B59C",
"yX c #D5B79C",
"uX c #DBB59B",
"iX c #E3AD8D",
"pX c #E2B499",
"aX c #C9B9A1",
"sX c #CDBBA4",
"dX c #D5BCA3",
"fX c #D8B8A2",
"gX c #DBBCA4",
"hX c #D4BEA9",
"jX c #E3BCA3",
"kX c #E4BBA5",
"lX c #CFC0A8",
"zX c #D7C1A6",
"xX c #DAC1A5",
"cX c #D4C2AB",
"vX c #DCC4AB",
"bX c #D9C7B3",
"nX c #DCCAB5",
"mX c #E3C2AB",
"MX c #EBC5AD",
"NX c #E3C9AE",
"BX c #E3CBB4",
"VX c #E9CBB4",
"CX c #F1D0B8",
/* pixels */
"0.J.J.f.J.g.] ! { F.D.f.} d.,XgX5XR.L. XL.T.^. X1X1XS.f.f.S.S.S.S.] * ! 0./ | | { U.+X5X5XR.] ,.,.+.^ ) ^ S 0.g.g.1.o.,.r.+.) G ",
"R.(.~.R.R.C.R.<X<X$X$XoXoX$X$XQ.s.} { _.{ { M.} D././.,X5X<XA.d.A.U./.OXR.+X+XQ.Q.oX$XoXQ.oXR.(.^.^.T.~.S.<XkX-X(.(.P.P.g.Z.(.f.",
"C.D.D.C.C.W.Q.@XXXXXXXoXoXoXQ.Y.d.A.} [ s.N.A.D.D.Y.OX&X@XY.V.I.Q.oX0X3X$X3X3X3XwXqXeXqX3X$X$X$X+X#XoX#XwXdX0X&XoX+X+X_.U.U./.+X",
"oX+X#X).Q.+XoX3X3X6X%X3XqX$XoX+XOX/.XXQ.N.Q.oX,XoXXX$XqX*X6X6X$XXXXX@X*XeXsXqXqXsXsXcXcXsX3X3X3X*X3X*X*XeXaXcXsX*X*X#X$X3X$X,XMX",
"vXvXdXtXgXgXVXVXNXvXBXVXCXNXdX3X$X3X$X$X*X*X*X3X3X%XqXsXsXhXcX6X3XwXdXhXhXcXhXhXcXvXBXBXvXhXdXhXsXdXdXdXvXBXBXBXBXvX0X5XfX5X,XkX",
"MXrX8X8X9X=X8XrXjXpXpX9X2X;XpXMXMXgXrX,X0X0X3XoXY.5XxXmXBXBXVXmXkXmXMXVXCXCXCXVXVXMXMXMXMXMXMXCXMXkXmXkXjXkXuXMXkX1X;X;X{.k.k.G.",
"u.o.<.<.r.<.H.].H.r.r.;.r.@.@.u.|.:X}.}.C.).Q.A.D.>X2X;X9X9XpXpX2XpX9X;X}.;X9X2X;X{.k.j.p.p.'.|.{.H.H.l.u.O.<.l.U i U m m X.n.n.",
"k O.3.3.3.O.3.b.t.=.X.-.c.c.#.X.=.@.r.].) S.F.F.C.P.H.....O.=.r.].].a.@.....<.@.O.X.m N N N U X.Y N X.&.Y 8 p p 0 m &.b V -.V -.",
"P 3.&.R O.4.U =.X.W W V l $.z.5.-.b.t.`.iX>X~._.Z.9.y.B B b V V $.z.-.-.-.*.-.-.-.z.$.$.W W #.$.#.#.$.Q M b M 0 x Y Q M x W M M ",
"<.<.7.<.r.l.l.O.i g m x W *.x M W #.-.X.2X_.W._.^.9.N B b $.z.$.$.$.*.V z.W *.-.x.-.#.#.#.&.#.#.&.*.&.N u u 8 8 u s c c c 8 3 8 ",
">.<.,.r.9.,.7.u.&.&.5.&.&.*.b x Z Z v N 2X~.D.#X_.8.X.B b V *.$.*.W *.W W B -.x.#.#.=.=.y.[.i.R &.i.P 7 k p 7 c E Y c u 8 < p p ",
"@.@.r.u.<...U O.4.&.Y #.v M $.9 b $.Z g }._.s.W.=X{.r.V *.V b x x W c.&.&.n.b.5.&.3.3.U ..u.'.<.O.3.R k P 3.&.Y I Q I 9 8 c I U ",
">.o.<.<.u.r.o.U 4.3.E I N M M 3 V Z z.X..X>X .F. X}.X.v V V V *.t.X.Y =.t.].&.7.4.O.O.7.O.H i.<.>.4.4.E F R U #.5.&.Y I P &.P P ",
"+.<.9.9.j.u.+.+.7.O.R U N I 6.Q $.$.$.=..X XM.).L.p.X.V l V $.B -.5.n.].b.y.3.O.&.&.O.>.7.i.<.>.<.3.R H k k X.O.4.t.=.P U >.<.o.",
"K o.9.<.<.<.>.@.@...O.O.I I u p W W t.t.K.>XW._.^.H.=.B 9 b W p B =.4.=.y.t.r.i.7.4.u.4.7.7.<.r.o.a F U R 4.R O.i.4.O.<.o.o.+.^ ",
"9.+.H +.>.<.9.o.H o.>.U a U p u N &.=.m..XuXW.~. Xp.N B $.b M W 5.t.&.&.t.R 4.l.i.u.4.4.7.7.9.<.R F R R F k P >.l.7.o.o.>.<...<.",
"o.9.,.o.9.u.D e j H j F 4 2 1 a P m &.4.k.rXW.~.^.p.n #.x.M M M #.&.4.7.r.4.4.3.3.a.u.O.7.t.u.>.O.>.H i O.o.H o.l.<.>.2.u.2.<.>.",
"j ( ,.9.9.o.o.o.K u.o.F F y 1 y k 8 b.4.d  X_./._.p.%.c.v.M p m Y O.t.m.i.t.a.r.3.4.3.4.t.7.o.o.7.o.o.O.U i.i.o.>.>.<.j.:.,.o.K ",
"q.+.K ,.k.p.9.<.>.<.O.U F U m.I < p &.y.p.rX3X).<XG.t.c.z.M b M m k &.4.O.<.i.O.4.4.4.i.i.i.7.7.i.u.l.l.<.U O.@.<.u.r.:.^ D D ( ",
"q.9.p.k.k.9.,.<.o.O.O.I E m s Y m b B t.K.8X0X3X<XP.;.#.W M V B =.U k O.t.l.7.3.u.u.i.r.O.O.i.O.O.7.l.l.l.7.O.u.<.<.2.D H K ,.9.",
"<.u.p.K.( j o...O.3.I I Y I N &.x 3 M X.k.<XeXsX5X|.r.$.x.*.*.x.&.4.3.O.O.u.i.i.7.7.7.O.F o.<.j H U 7.l.i.l.].l.K H H H ,.>.r.a.",
"9.p.j.o.D p.l.3.i.Y m N k p Y *.W x x X.}.tXcXlXdX^...v $.$.B #.m I m P &.O.4.3.4.7.O.P o.<.U F R F O.O.P a R R F o.R :.7.].l.u.",
"l.:.o.o.>.<.i.i.O.m E N N M W p M *.*.=.k.$XcXcXdX(.9.n V z.V B *.*.m Y 5.&.4.4.&.4.&.O.4.O.F O.3.4.4.P O.o.7 r H O.R o.4.r.7.4.",
"+.+.>.<.7.7.i.O.U &.m p Y Q W $.b M v.&.k.gXcXbXvX5XP.n.v.v.z.-.c.x.#.-.B Y Y #.c.#.B &.#.-.k i i k U O.O.&.Y E 3.>.R >.4.@.t.m.",
"O.O.U &.O.Y 4.&.N I I I W M x $.$.W *.t.=XdXbXnXcXyX>Xy.-.V z.[.v.-.$.c.-.B 9 p #.x.-.B *.W N 7 < < u N v M M X.Y Y 4.4.&.4.4.t.",
"&.#.=.#.N m Y &.&.#.B 8 p W x b V W W a.8XhXbXbXsXtX2Xr.Y B $.c.c.-.#.#.n.n.#.n < p -.B *.#.m x v x m W W M B Y Y #.&.#.M m N I ",
"&.x.n.W Y #.Y Y 0 < 8 p 9 0 x M $.#.5.'.yXbXnXcXcXzX1Xr.Y #.B #.9 + , : : : q p -.m p M c Y Y x.5.W x p B B B 0 < n #.m Y Y m c ",
"Y #.Y Y Y M m g u m I &.M x M *.z.c.n.|.tXcXnXbXnXzX(.<.O.#.p V &.q B &.n q m p , u p u p m Y &.Y &.*.Y &.M x M u N 5.s I #.O.E ",
"k F y > 2 y k O.O.O.I p l M M $.-.b.a.}.$XaXnXvXcXdXR.o.O.#.x W v.&.&.&.&.4.U #.k 8 u y y p p I Q W Y &.*.u p 5.I 8 I O.k 6 6 1 ",
"1 w w K F a i 6 1 7 1 y k k N 5.t.X.e.~.!.sXBXlXzXwXU.S H k U Y k k Y U i a a 7 U 4.O.i k j i i k Y O.O.U O.O.k U R r t :.w O X ",
"w & t t w d & e f & e f f J j.q.,.( S.).).dXeX*XwX3XoXf.g.J.g.( & 6 H ( j e G :.,.k.9.( 6 J ] / f D D ^ q.u.K f G G ' S A ' ` ' ",
"| 0.| ' ` ` / | g.S.S.f.f.| { ! S ! }  .d.I.Q.I.I.oXoXQ.R.D.f.| J.E.P.w.g.Z.S.S.S.g.f.f.Z.R.S.S.f.f.w.w.w.| ' ] | ` d.A.U.U.D.U.",
"I./.U.D.Y.I.I.U.U.U.U.I.I.I.M.[ _ [ } } N.N.oXoXoX0XtX5X).D.U./.U.U.D.M.D.U.U.Y.U.Y.Y.U.).W.I.A.A.N.s.M. .[ d.D.U.oXQ.I. ._  .C.",
"%X3X$XoX#X,X@X$X+XoX$X$X$XoXoX!.!.I.B.Y.oX$X0XdXvXvXvXvXeXeXdXwX0X3X0X0X4X,X5XwX5XtX3X4X4X<X4X$XoXoXQ.).!.Q.I.I.N.I.U.+X#XoX).W.",
"dXdXgXmXmXMXgXvXgXwX4X5XtXgXtX4X3X$X$X<X0XxXxXdXvXvXxXNXNXxXxXxXvXxXvXzXdXxXmXvXdXVXdXmXgXgXvXdXtXdXwXwX0X5X5X5X,X$X+X@X3X5X0XwX",
"MX5X1X=XT.-X1X8XrXMXjX1X;X;X1XjXMXgXgXrXuXuXgXuXuXjX2X8XrXuXrXrX8X5XrXtXtXdXyXyXfXgXtXfXrX8XuXrXuXgXrXtXjXrXmXgXmXMXmX0X0X0XyXvX",
"P.] ,.:.D ( ,.] ,.E.{.q.1.0.0.T.8XjX;XJ.P.h.T.E.P.J.q.k.q.8.q.q.k.q.E.;X;X X=X>X=XT.P.P.K.9.9.u.k.K.k.K..XE.|.;X2X;X2X8XkXCXjX$X",
"1.q.,.o.+.<.o.o.q.D G ( ,.<.D ( }.|.K.u.( o.,.,.,.,.+.>.o.^ 9.o.o.k U u.7.+.<.<.F F U O.E k m p I #.#.I Y t.4.m.t.O.O...<..X9XS.",
"q.p.p.<.>.o.+.r.j.j.<.,.,.o.D 1.;X:X'.u.d 6 ( <.o.h H +.,...@.>.7.4.>.<.u.7.o.o.4.O.R P k P U U P m I m p m W *.Y M v g m y k ;X",
",.+.<.j.9.o.9.k.p.k.q.+.( ,.9.q.K.;XK.9.h d o.o.,.G D G ,.<.^ ..@.<.<.<.@.<.<.<.<.o.>.<...H o.o.F k U Y P m U m N Y W W $.#.: G.",
"k.k.k.9.p.j.q.1.K G ,.( ,.q.1.^ 8.e.k.K.k.1.:.( q.j.D ( <.,.9...q.@.+.<.<.>.<.<.>.<.>.@.+.K D K R R R O.R R U k I Y I Y W x.N G ",
"k.k.k.j.k.p.9.+.( ~ ^ ,.,.1.0.q.q.q.( q.k.1.( ( ( 2.1.( ,.9.,.<.<.+.,.<.9.9.r.+.+.<.>.+.<.,.K R :.<.>.:.>.o.o.R O.U U &.M x X.,.",
"q.q.q.G.p.p.k.q.9.q.K ( ,.( ( ,.,.+.+.( 1.<.:.( ^ J q.G ^ p.+.<.o.+.9.9.>.<.9.p.p.<.>.<.>.,.,.G G :.2.2.<.,.<.>.R P I I I M g p.",
"9.q.k.q.8.p.p.,.,.q.:.( 1.,.D d ^ +.+.G ^ 1.^ ( ,.( ^ +.( +.9.,.( ....<.9.<.9.<.<.,.<.p.<.<.,.+.K ^ ,.<.:.2.2.>.R U U I p m n p.",
"G ^ g.G f ( ^ ( 1.,.,.2.:.o.,.( ^ ( G ( G ( 1.,.J G ( ,.o.o.,.<.<.9.( ..9.+.<.9...,.r.j.9.H <.K.9.f ^ 2.o.2.>.>.E k P P a Y Y 9.",
"f A 1.,.( +.,.o.( ( 2.,.( J J ( ,.q.8.^ ^ ^ 9.,.( ( K K ( ,.,.o.u.+.<.9.+.<.<.9.<.<.+.o.+.+.:.,.,.<.k.k.2.<.:.:.>.R F a m B x 8.",
"1.D ( q.9.q.9.:.( ,.:.:.:.( ( ^ G q.k.,.p.1.,.<.( 1.( ( o.^ K <.9...9.9.o.9.u.u.9.>...o.+.,.9.( ,.p.o.D ,.2.o.R O.R P k m W B H.",
"q.<.( ,.p.8.1.,.( ,.1.( :.,.9.q.^ D +.q.q.q.^ ^ D G 1.2.( ( ,.+.<.<.r.9.<.r.u.r.<.@.<.u.u.9.( ( ( o.o.o.<.:.( o.o.R k k m W W '.",
"k.9.<.,.+.+.,.p.q.( q.o.,.q.q.k.p.) f 9.1.1.( f G G ( ( ^ o.9.q.u.p.<.r.a.u.r.u.u.u.u.u.<.>.j.r.>.<.r.2.2.:.o.o.R U P I p M B K.",
"e.+.p.p.p.H.q.9.p.9.q.q.^ h ,.H.'.9.o.1.9.,.] ( / ( G D ^ K o.p.u.r.9.a.a.u.u.u.u.p.l.l.p.9.<.+.o.u.l.<.<.R F K F F s P p M N {.",
"k.G.H.H.9.p.p.q.k.p.1.9.+.+.9.u.k.k.9.,.k.,.G ( J G ' 1.,.,.1.<.9.u.r.<.r.<.<.<.,.+.9.p.9.9.o.<.<.r.u.>.R :.F H T F u c m M n P.",
"K.G.G.p.p.<.<.K.p.( j.j.<.9.9.,.9.p.u.9.,.1.q.q.1.( ] 1.,.<.<.9.p.<.,.( ,.+.o.>.>.>.>.o.( <.<.o.U <.7.>.o.K K t a U L p m M M q.",
"o.^ q.K.8.,.q.q.q.1.1.q.( ^ q.q.o.q.p.,.,.1.G t / 1.1.0.j.1.o.,.k.,.<.<.>.>.o.<.>.R +.2.>.o.<.H j R R a a F R R s E &.m m W Y e.",
"j.2.:.q.,.+.,.( 1.k.q.,.,.1.k.k.1.<.<.2.:.G ,.0.A w A J D G ( D H <.:.K o.o.R R 4.<.o.F U o.o.:.>.R r r R R F U I s c m Y $.Y e.",
"K o.,.( 2.<.( 2.j.j.j.1.q.q.2.q.<.2.u.,.,.,.:.j.j.:.( G t D K H t H H F U F E >.R U O.O.F a i a F R k F O.s P s N m p x M W B G.",
"R F R K :.>.K F o.,.K H K R o.o.o.<.<.r r o.F a K >.:.,.<.K a :.K K R U U O.P P Y Y P s a U m s I &.O.m k p m c W W x x m W Y {.",
"O.4.o.O.i.7.E F a a F k k F U P E U k &.O.P P k a F O.U U R k U F H R 4.R E m p I I m m m m Q Y m m u u x m p c V b x M Y Q W }.",
"G K :.U k Y 4.4.3.E s m E &.Y I &.3.4.O.P U E y a O.7.4.U U u > > $ > a R q p p m m m m m M m b N U n.#.p W b x x x z M I W U T.",
"@ O $ t D @.r.r.i.i.t.b.5.5.&.5.5.U P P 3.R F t $ + # j F P I E E P y 2 a 7 m Y Y m c m b M p B O.R m.E p M M M b M x x M x N =X",
"  . . . . . . . o O # 6 j k s < 2 2 1 7 $ O d E.f.$ X X $ K +.O.U &.5.3.m k &.Y Y M x c m x x m u p < 8 W z M W x M W V V M O.7X",
"_ ; = = = = % = ; ; - S ,.H k U k r R u.p./ f.=XU.` * * e & # d k m N m i 7 7 p m I m s U I Y m u I N Y M V W M M #.B B W #.<.1X",
"Q.I.Q.Q.I.B.V.Y.U.U.(.(.}.'.a.<.l..Xl.r.9.q.Z.f.Z.f.g.J.p.H h p.<.5 5 a <.H r i i j 5 + r ..o...k q g g q n N v Y b.t.a.[.u.G.uX",
"oXQ.oX/.XXQ.Q.Q.Q.W.W.F.{ w.g.) w.h.~ d d ] T.R.(.=X+XT.E.>X>X^.g.w.}.E.J.g.;X2XT.g.J.E.>X9X1X>XJ.0.G.q.|.K.G.H.k.K.K.P. X X=XtX",
"@X@X@X@X@X$X&X$X,X5X,XoXA.D.D.C.{ _ {  .s.A.).,X3X3XwX4X3XdXtX<X/.+X+X+X$X,XfXtX5X,XwXdXdXgXfXwX5X0X0X+X<X+X,X,X3X$XU.Q.OX3X,X*X"
};
